<mxfile host="app.diagrams.net" modified="2024-02-07T17:16:42.584Z" agent="Mozilla/5.0 (Windows NT 10.0; Win64; x64) AppleWebKit/537.36 (KHTML, like Gecko) Chrome/121.0.0.0 Safari/537.36" etag="ecliErvFdl8WSzjNY5te" version="23.1.1" type="google">
  <diagram name="Page-1" id="58cdce13-f638-feb5-8d6f-7d28b1aa9fa0">
    <mxGraphModel grid="1" page="1" gridSize="10" guides="1" tooltips="1" connect="1" arrows="1" fold="1" pageScale="1" pageWidth="1654" pageHeight="1169" background="#D9F3F8" math="0" shadow="0">
      <root>
        <mxCell id="0" />
        <mxCell id="1" parent="0" />
        <mxCell id="U-6L90hBsTqb_HatNkOn-1" value="" style="ellipse;html=1;shape=startState;fillColor=#000000;strokeColor=#ff0000;fontFamily=Poppins;fontSource=https%3A%2F%2Ffonts.googleapis.com%2Fcss%3Ffamily%3DPoppins;" vertex="1" parent="1">
          <mxGeometry x="790" y="40" width="30" height="30" as="geometry" />
        </mxCell>
        <mxCell id="U-6L90hBsTqb_HatNkOn-2" value="" style="edgeStyle=orthogonalEdgeStyle;html=1;verticalAlign=bottom;endArrow=open;endSize=8;strokeColor=#ff0000;rounded=0;fontFamily=Poppins;fontSource=https%3A%2F%2Ffonts.googleapis.com%2Fcss%3Ffamily%3DPoppins;" edge="1" parent="1" source="U-6L90hBsTqb_HatNkOn-1">
          <mxGeometry relative="1" as="geometry">
            <mxPoint x="805" y="150" as="targetPoint" />
          </mxGeometry>
        </mxCell>
        <mxCell id="U-6L90hBsTqb_HatNkOn-4" value="User is a Coach" style="text;html=1;strokeColor=none;fillColor=none;align=center;verticalAlign=middle;whiteSpace=wrap;rounded=0;fontFamily=Poppins;fontSource=https%3A%2F%2Ffonts.googleapis.com%2Fcss%3Ffamily%3DPoppins;" vertex="1" parent="1">
          <mxGeometry x="810" y="90" width="60" height="30" as="geometry" />
        </mxCell>
        <mxCell id="U-6L90hBsTqb_HatNkOn-5" value="Sports Coach Dashboard" style="swimlane;fontStyle=1;align=center;verticalAlign=middle;childLayout=stackLayout;horizontal=1;startSize=30;horizontalStack=0;resizeParent=0;resizeLast=1;container=0;fontColor=#000000;collapsible=0;rounded=1;arcSize=30;strokeColor=#ff0000;fillColor=#ffffc0;swimlaneFillColor=#ffffc0;dropTarget=0;fontFamily=Poppins;fontSource=https%3A%2F%2Ffonts.googleapis.com%2Fcss%3Ffamily%3DPoppins;" vertex="1" parent="1">
          <mxGeometry x="710" y="150" width="190" height="90" as="geometry" />
        </mxCell>
        <mxCell id="U-6L90hBsTqb_HatNkOn-6" value="Do: Display the corresponding sports coach&#39;s dashboard" style="text;html=1;strokeColor=none;fillColor=none;align=center;verticalAlign=middle;spacingLeft=4;spacingRight=4;whiteSpace=wrap;overflow=hidden;rotatable=0;fontColor=#000000;fontFamily=Poppins;fontSource=https%3A%2F%2Ffonts.googleapis.com%2Fcss%3Ffamily%3DPoppins;" vertex="1" parent="U-6L90hBsTqb_HatNkOn-5">
          <mxGeometry y="30" width="190" height="60" as="geometry" />
        </mxCell>
        <mxCell id="U-6L90hBsTqb_HatNkOn-9" value="Subtitle" style="text;html=1;strokeColor=none;fillColor=none;align=center;verticalAlign=middle;spacingLeft=4;spacingRight=4;whiteSpace=wrap;overflow=hidden;rotatable=0;fontColor=#000000;fontFamily=Poppins;fontSource=https%3A%2F%2Ffonts.googleapis.com%2Fcss%3Ffamily%3DPoppins;" vertex="1" parent="U-6L90hBsTqb_HatNkOn-5">
          <mxGeometry y="90" width="190" as="geometry" />
        </mxCell>
        <mxCell id="U-6L90hBsTqb_HatNkOn-17" value="Post workshop" style="swimlane;fontStyle=1;align=center;verticalAlign=middle;childLayout=stackLayout;horizontal=1;startSize=30;horizontalStack=0;resizeParent=0;resizeLast=1;container=0;fontColor=#000000;collapsible=0;rounded=1;arcSize=30;strokeColor=#ff0000;fillColor=#ffffc0;swimlaneFillColor=#ffffc0;dropTarget=0;fontFamily=Poppins;fontSource=https%3A%2F%2Ffonts.googleapis.com%2Fcss%3Ffamily%3DPoppins;" vertex="1" parent="1">
          <mxGeometry x="80" y="420" width="160" height="90" as="geometry" />
        </mxCell>
        <mxCell id="U-6L90hBsTqb_HatNkOn-18" value="Do: Ask for the details of the workshop" style="text;html=1;strokeColor=none;fillColor=none;align=center;verticalAlign=middle;spacingLeft=4;spacingRight=4;whiteSpace=wrap;overflow=hidden;rotatable=0;fontColor=#000000;fontFamily=Poppins;fontSource=https%3A%2F%2Ffonts.googleapis.com%2Fcss%3Ffamily%3DPoppins;" vertex="1" parent="U-6L90hBsTqb_HatNkOn-17">
          <mxGeometry y="30" width="160" height="60" as="geometry" />
        </mxCell>
        <mxCell id="U-6L90hBsTqb_HatNkOn-20" value="Do: Ask for the details of the workshop" style="text;html=1;strokeColor=none;fillColor=none;align=center;verticalAlign=middle;spacingLeft=4;spacingRight=4;whiteSpace=wrap;overflow=hidden;rotatable=0;fontColor=#000000;fontFamily=Poppins;fontSource=https%3A%2F%2Ffonts.googleapis.com%2Fcss%3Ffamily%3DPoppins;" vertex="1" parent="U-6L90hBsTqb_HatNkOn-17">
          <mxGeometry y="90" width="160" as="geometry" />
        </mxCell>
        <mxCell id="U-6L90hBsTqb_HatNkOn-25" value="Upcoming Workshops" style="swimlane;fontStyle=1;align=center;verticalAlign=middle;childLayout=stackLayout;horizontal=1;startSize=30;horizontalStack=0;resizeParent=0;resizeLast=1;container=0;fontColor=#000000;collapsible=0;rounded=1;arcSize=30;strokeColor=#ff0000;fillColor=#ffffc0;swimlaneFillColor=#ffffc0;dropTarget=0;fontFamily=Poppins;fontSource=https%3A%2F%2Ffonts.googleapis.com%2Fcss%3Ffamily%3DPoppins;" vertex="1" parent="1">
          <mxGeometry x="400" y="420" width="160" height="90" as="geometry" />
        </mxCell>
        <mxCell id="U-6L90hBsTqb_HatNkOn-26" value="Do: Display a list of all the upcoming workshops" style="text;html=1;strokeColor=none;fillColor=none;align=center;verticalAlign=middle;spacingLeft=4;spacingRight=4;whiteSpace=wrap;overflow=hidden;rotatable=0;fontColor=#000000;fontFamily=Poppins;fontSource=https%3A%2F%2Ffonts.googleapis.com%2Fcss%3Ffamily%3DPoppins;" vertex="1" parent="U-6L90hBsTqb_HatNkOn-25">
          <mxGeometry y="30" width="160" height="60" as="geometry" />
        </mxCell>
        <mxCell id="U-6L90hBsTqb_HatNkOn-33" value="Reserve Courts" style="swimlane;fontStyle=1;align=center;verticalAlign=middle;childLayout=stackLayout;horizontal=1;startSize=30;horizontalStack=0;resizeParent=0;resizeLast=1;container=0;fontColor=#000000;collapsible=0;rounded=1;arcSize=30;strokeColor=#ff0000;fillColor=#ffffc0;swimlaneFillColor=#ffffc0;dropTarget=0;fontFamily=Poppins;fontSource=https%3A%2F%2Ffonts.googleapis.com%2Fcss%3Ffamily%3DPoppins;" vertex="1" parent="1">
          <mxGeometry x="725" y="420" width="160" height="90" as="geometry" />
        </mxCell>
        <mxCell id="U-6L90hBsTqb_HatNkOn-35" value="Do: Display the courts reserving page and ask for details&amp;nbsp;" style="text;html=1;strokeColor=none;fillColor=none;align=center;verticalAlign=middle;spacingLeft=4;spacingRight=4;whiteSpace=wrap;overflow=hidden;rotatable=0;fontColor=#000000;fontFamily=Poppins;fontSource=https%3A%2F%2Ffonts.googleapis.com%2Fcss%3Ffamily%3DPoppins;" vertex="1" parent="U-6L90hBsTqb_HatNkOn-33">
          <mxGeometry y="30" width="160" height="60" as="geometry" />
        </mxCell>
        <mxCell id="U-6L90hBsTqb_HatNkOn-37" value="Detailed Statistics" style="swimlane;fontStyle=1;align=center;verticalAlign=middle;childLayout=stackLayout;horizontal=1;startSize=30;horizontalStack=0;resizeParent=0;resizeLast=1;container=0;fontColor=#000000;collapsible=0;rounded=1;arcSize=30;strokeColor=#ff0000;fillColor=#ffffc0;swimlaneFillColor=#ffffc0;dropTarget=0;fontFamily=Poppins;fontSource=https%3A%2F%2Ffonts.googleapis.com%2Fcss%3Ffamily%3DPoppins;" vertex="1" parent="1">
          <mxGeometry x="1040" y="420" width="160" height="90" as="geometry" />
        </mxCell>
        <mxCell id="U-6L90hBsTqb_HatNkOn-39" value="Do: Display the detailed statistics of that sport for that day&amp;nbsp;" style="text;html=1;strokeColor=none;fillColor=none;align=center;verticalAlign=middle;spacingLeft=4;spacingRight=4;whiteSpace=wrap;overflow=hidden;rotatable=0;fontColor=#000000;fontFamily=Poppins;fontSource=https%3A%2F%2Ffonts.googleapis.com%2Fcss%3Ffamily%3DPoppins;" vertex="1" parent="U-6L90hBsTqb_HatNkOn-37">
          <mxGeometry y="30" width="160" height="60" as="geometry" />
        </mxCell>
        <mxCell id="U-6L90hBsTqb_HatNkOn-43" value="Do: Display the detailed statistics of&amp;nbsp;" style="text;html=1;strokeColor=none;fillColor=none;align=center;verticalAlign=middle;spacingLeft=4;spacingRight=4;whiteSpace=wrap;overflow=hidden;rotatable=0;fontColor=#000000;fontFamily=Poppins;fontSource=https%3A%2F%2Ffonts.googleapis.com%2Fcss%3Ffamily%3DPoppins;" vertex="1" parent="U-6L90hBsTqb_HatNkOn-37">
          <mxGeometry y="90" width="160" as="geometry" />
        </mxCell>
        <mxCell id="U-6L90hBsTqb_HatNkOn-40" value="Validation" style="swimlane;fontStyle=1;align=center;verticalAlign=middle;childLayout=stackLayout;horizontal=1;startSize=30;horizontalStack=0;resizeParent=0;resizeLast=1;container=0;fontColor=#000000;collapsible=0;rounded=1;arcSize=30;strokeColor=#ff0000;fillColor=#ffffc0;swimlaneFillColor=#ffffc0;dropTarget=0;fontFamily=Poppins;fontSource=https%3A%2F%2Ffonts.googleapis.com%2Fcss%3Ffamily%3DPoppins;" vertex="1" parent="1">
          <mxGeometry x="1360" y="420" width="160" height="90" as="geometry" />
        </mxCell>
        <mxCell id="U-6L90hBsTqb_HatNkOn-42" value="Do: Display the list of bookings made and allow the user to mark attendance" style="text;html=1;strokeColor=none;fillColor=none;align=center;verticalAlign=middle;spacingLeft=4;spacingRight=4;whiteSpace=wrap;overflow=hidden;rotatable=0;fontColor=#000000;fontFamily=Poppins;fontSource=https%3A%2F%2Ffonts.googleapis.com%2Fcss%3Ffamily%3DPoppins;" vertex="1" parent="U-6L90hBsTqb_HatNkOn-40">
          <mxGeometry y="30" width="160" height="60" as="geometry" />
        </mxCell>
        <mxCell id="U-6L90hBsTqb_HatNkOn-45" value="Add workshop" style="swimlane;fontStyle=1;align=center;verticalAlign=middle;childLayout=stackLayout;horizontal=1;startSize=30;horizontalStack=0;resizeParent=0;resizeLast=1;container=0;fontColor=#000000;collapsible=0;rounded=1;arcSize=30;strokeColor=#ff0000;fillColor=#ffffc0;swimlaneFillColor=#ffffc0;dropTarget=0;fontFamily=Poppins;fontSource=https%3A%2F%2Ffonts.googleapis.com%2Fcss%3Ffamily%3DPoppins;" vertex="1" parent="1">
          <mxGeometry x="80" y="680" width="160" height="80" as="geometry" />
        </mxCell>
        <mxCell id="U-6L90hBsTqb_HatNkOn-46" value="Do: Add the workshop to database" style="text;html=1;strokeColor=none;fillColor=none;align=center;verticalAlign=middle;spacingLeft=4;spacingRight=4;whiteSpace=wrap;overflow=hidden;rotatable=0;fontColor=#000000;fontFamily=Poppins;fontSource=https%3A%2F%2Ffonts.googleapis.com%2Fcss%3Ffamily%3DPoppins;" vertex="1" parent="U-6L90hBsTqb_HatNkOn-45">
          <mxGeometry y="30" width="160" height="50" as="geometry" />
        </mxCell>
        <mxCell id="U-6L90hBsTqb_HatNkOn-49" value="Do: Add the workshop to database" style="text;html=1;strokeColor=none;fillColor=none;align=center;verticalAlign=middle;spacingLeft=4;spacingRight=4;whiteSpace=wrap;overflow=hidden;rotatable=0;fontColor=#000000;fontFamily=Poppins;fontSource=https%3A%2F%2Ffonts.googleapis.com%2Fcss%3Ffamily%3DPoppins;" vertex="1" parent="U-6L90hBsTqb_HatNkOn-45">
          <mxGeometry y="80" width="160" as="geometry" />
        </mxCell>
        <mxCell id="U-6L90hBsTqb_HatNkOn-21" style="edgeStyle=orthogonalEdgeStyle;rounded=0;orthogonalLoop=1;jettySize=auto;html=1;entryX=0.5;entryY=0;entryDx=0;entryDy=0;fontFamily=Poppins;fontSource=https%3A%2F%2Ffonts.googleapis.com%2Fcss%3Ffamily%3DPoppins;" edge="1" parent="1" source="U-6L90hBsTqb_HatNkOn-20" target="U-6L90hBsTqb_HatNkOn-45">
          <mxGeometry relative="1" as="geometry">
            <mxPoint x="160" y="600" as="targetPoint" />
          </mxGeometry>
        </mxCell>
        <mxCell id="U-6L90hBsTqb_HatNkOn-56" value="Send Request" style="swimlane;fontStyle=1;align=center;verticalAlign=middle;childLayout=stackLayout;horizontal=1;startSize=30;horizontalStack=0;resizeParent=0;resizeLast=1;container=0;fontColor=#000000;collapsible=0;rounded=1;arcSize=30;strokeColor=#ff0000;fillColor=#ffffc0;swimlaneFillColor=#ffffc0;dropTarget=0;fontFamily=Poppins;fontSource=https%3A%2F%2Ffonts.googleapis.com%2Fcss%3Ffamily%3DPoppins;" vertex="1" parent="1">
          <mxGeometry x="725" y="680" width="160" height="80" as="geometry" />
        </mxCell>
        <mxCell id="U-6L90hBsTqb_HatNkOn-58" value="Do: Send the reserving request to the backend" style="text;html=1;strokeColor=none;fillColor=none;align=center;verticalAlign=middle;spacingLeft=4;spacingRight=4;whiteSpace=wrap;overflow=hidden;rotatable=0;fontColor=#000000;fontFamily=Poppins;fontSource=https%3A%2F%2Ffonts.googleapis.com%2Fcss%3Ffamily%3DPoppins;" vertex="1" parent="U-6L90hBsTqb_HatNkOn-56">
          <mxGeometry y="30" width="160" height="50" as="geometry" />
        </mxCell>
        <mxCell id="U-6L90hBsTqb_HatNkOn-59" value="Do: Add the workshop to database" style="text;html=1;strokeColor=none;fillColor=none;align=center;verticalAlign=middle;spacingLeft=4;spacingRight=4;whiteSpace=wrap;overflow=hidden;rotatable=0;fontColor=#000000;fontFamily=Poppins;fontSource=https%3A%2F%2Ffonts.googleapis.com%2Fcss%3Ffamily%3DPoppins;" vertex="1" parent="U-6L90hBsTqb_HatNkOn-56">
          <mxGeometry y="80" width="160" as="geometry" />
        </mxCell>
        <mxCell id="U-6L90hBsTqb_HatNkOn-34" style="edgeStyle=orthogonalEdgeStyle;rounded=0;orthogonalLoop=1;jettySize=auto;html=1;entryX=0.5;entryY=0;entryDx=0;entryDy=0;fontFamily=Poppins;fontSource=https%3A%2F%2Ffonts.googleapis.com%2Fcss%3Ffamily%3DPoppins;" edge="1" parent="1" source="U-6L90hBsTqb_HatNkOn-35" target="U-6L90hBsTqb_HatNkOn-56">
          <mxGeometry relative="1" as="geometry">
            <mxPoint x="805" y="600" as="targetPoint" />
          </mxGeometry>
        </mxCell>
        <mxCell id="U-6L90hBsTqb_HatNkOn-66" value="" style="ellipse;html=1;shape=endState;fillColor=#000000;strokeColor=#ff0000;fontFamily=Poppins;fontSource=https%3A%2F%2Ffonts.googleapis.com%2Fcss%3Ffamily%3DPoppins;" vertex="1" parent="1">
          <mxGeometry x="790" y="890" width="30" height="30" as="geometry" />
        </mxCell>
        <mxCell id="U-6L90hBsTqb_HatNkOn-60" style="edgeStyle=orthogonalEdgeStyle;rounded=0;orthogonalLoop=1;jettySize=auto;html=1;exitX=0.5;exitY=1;exitDx=0;exitDy=0;entryX=0.5;entryY=0;entryDx=0;entryDy=0;fontFamily=Poppins;fontSource=https%3A%2F%2Ffonts.googleapis.com%2Fcss%3Ffamily%3DPoppins;" edge="1" parent="1" source="U-6L90hBsTqb_HatNkOn-58" target="U-6L90hBsTqb_HatNkOn-66">
          <mxGeometry relative="1" as="geometry">
            <mxPoint x="805.7142857142858" y="869.9999999999998" as="targetPoint" />
          </mxGeometry>
        </mxCell>
        <mxCell id="U-6L90hBsTqb_HatNkOn-68" style="edgeStyle=orthogonalEdgeStyle;rounded=0;orthogonalLoop=1;jettySize=auto;html=1;exitX=0.5;exitY=1;exitDx=0;exitDy=0;entryX=1;entryY=0;entryDx=0;entryDy=0;fontFamily=Poppins;fontSource=https%3A%2F%2Ffonts.googleapis.com%2Fcss%3Ffamily%3DPoppins;" edge="1" parent="1" source="U-6L90hBsTqb_HatNkOn-39" target="U-6L90hBsTqb_HatNkOn-66">
          <mxGeometry relative="1" as="geometry">
            <Array as="points">
              <mxPoint x="1120" y="840" />
              <mxPoint x="816" y="840" />
            </Array>
          </mxGeometry>
        </mxCell>
        <mxCell id="U-6L90hBsTqb_HatNkOn-70" style="edgeStyle=orthogonalEdgeStyle;rounded=0;orthogonalLoop=1;jettySize=auto;html=1;exitX=0.5;exitY=1;exitDx=0;exitDy=0;entryX=0;entryY=0.5;entryDx=0;entryDy=0;fontFamily=Poppins;fontSource=https%3A%2F%2Ffonts.googleapis.com%2Fcss%3Ffamily%3DPoppins;" edge="1" parent="1" source="U-6L90hBsTqb_HatNkOn-46" target="U-6L90hBsTqb_HatNkOn-66">
          <mxGeometry relative="1" as="geometry">
            <mxPoint x="450" y="960" as="targetPoint" />
          </mxGeometry>
        </mxCell>
        <mxCell id="U-6L90hBsTqb_HatNkOn-71" style="edgeStyle=orthogonalEdgeStyle;rounded=0;orthogonalLoop=1;jettySize=auto;html=1;exitX=0.5;exitY=1;exitDx=0;exitDy=0;entryX=1;entryY=0.5;entryDx=0;entryDy=0;fontFamily=Poppins;fontSource=https%3A%2F%2Ffonts.googleapis.com%2Fcss%3Ffamily%3DPoppins;" edge="1" parent="1" source="U-6L90hBsTqb_HatNkOn-42" target="U-6L90hBsTqb_HatNkOn-66">
          <mxGeometry relative="1" as="geometry" />
        </mxCell>
        <mxCell id="U-6L90hBsTqb_HatNkOn-72" style="edgeStyle=orthogonalEdgeStyle;rounded=0;orthogonalLoop=1;jettySize=auto;html=1;exitX=0.5;exitY=1;exitDx=0;exitDy=0;entryX=0.5;entryY=0;entryDx=0;entryDy=0;fontFamily=Poppins;fontSource=https%3A%2F%2Ffonts.googleapis.com%2Fcss%3Ffamily%3DPoppins;" edge="1" parent="1" source="U-6L90hBsTqb_HatNkOn-6" target="U-6L90hBsTqb_HatNkOn-17">
          <mxGeometry relative="1" as="geometry" />
        </mxCell>
        <mxCell id="U-6L90hBsTqb_HatNkOn-81" value="Click &lt;br&gt;&quot;post workshop&quot;" style="text;html=1;strokeColor=none;fillColor=none;align=center;verticalAlign=middle;whiteSpace=wrap;rounded=0;fontFamily=Poppins;fontSource=https%3A%2F%2Ffonts.googleapis.com%2Fcss%3Ffamily%3DPoppins;" vertex="1" parent="1">
          <mxGeometry x="160" y="350" width="100" height="30" as="geometry" />
        </mxCell>
        <mxCell id="U-6L90hBsTqb_HatNkOn-82" value="Click&lt;br&gt;&quot;check enrolment&quot;" style="text;html=1;strokeColor=none;fillColor=none;align=center;verticalAlign=middle;whiteSpace=wrap;rounded=0;fontFamily=Poppins;fontSource=https%3A%2F%2Ffonts.googleapis.com%2Fcss%3Ffamily%3DPoppins;" vertex="1" parent="1">
          <mxGeometry x="480" y="360" width="120" height="30" as="geometry" />
        </mxCell>
        <mxCell id="U-6L90hBsTqb_HatNkOn-83" value="Enter the details and click &quot;Reserve&quot;" style="text;html=1;strokeColor=none;fillColor=none;align=center;verticalAlign=middle;whiteSpace=wrap;rounded=0;fontFamily=Poppins;fontSource=https%3A%2F%2Ffonts.googleapis.com%2Fcss%3Ffamily%3DPoppins;" vertex="1" parent="1">
          <mxGeometry x="810" y="570" width="100" height="40" as="geometry" />
        </mxCell>
        <mxCell id="U-6L90hBsTqb_HatNkOn-84" value="Click on any workshop" style="text;html=1;strokeColor=none;fillColor=none;align=center;verticalAlign=middle;whiteSpace=wrap;rounded=0;fontFamily=Poppins;fontSource=https%3A%2F%2Ffonts.googleapis.com%2Fcss%3Ffamily%3DPoppins;" vertex="1" parent="1">
          <mxGeometry x="480" y="569" width="90" height="30" as="geometry" />
        </mxCell>
        <mxCell id="U-6L90hBsTqb_HatNkOn-85" value="Click&lt;br&gt;&quot;reserve court&quot;" style="text;html=1;strokeColor=none;fillColor=none;align=center;verticalAlign=middle;whiteSpace=wrap;rounded=0;fontFamily=Poppins;fontSource=https%3A%2F%2Ffonts.googleapis.com%2Fcss%3Ffamily%3DPoppins;" vertex="1" parent="1">
          <mxGeometry x="800" y="360" width="100" height="30" as="geometry" />
        </mxCell>
        <mxCell id="U-6L90hBsTqb_HatNkOn-86" value="Enter the details and click &quot;ADD&quot;" style="text;html=1;strokeColor=none;fillColor=none;align=center;verticalAlign=middle;whiteSpace=wrap;rounded=0;fontFamily=Poppins;fontSource=https%3A%2F%2Ffonts.googleapis.com%2Fcss%3Ffamily%3DPoppins;" vertex="1" parent="1">
          <mxGeometry x="165" y="570" width="90" height="30" as="geometry" />
        </mxCell>
        <mxCell id="U-6L90hBsTqb_HatNkOn-87" value="Click&lt;br&gt;&quot;detailed statistics&quot;" style="text;html=1;strokeColor=none;fillColor=none;align=center;verticalAlign=middle;whiteSpace=wrap;rounded=0;fontFamily=Poppins;fontSource=https%3A%2F%2Ffonts.googleapis.com%2Fcss%3Ffamily%3DPoppins;" vertex="1" parent="1">
          <mxGeometry x="1120" y="360" width="120" height="30" as="geometry" />
        </mxCell>
        <mxCell id="U-6L90hBsTqb_HatNkOn-90" value="Click&lt;br&gt;&quot;validate user&quot;" style="text;html=1;strokeColor=none;fillColor=none;align=center;verticalAlign=middle;whiteSpace=wrap;rounded=0;fontFamily=Poppins;fontSource=https%3A%2F%2Ffonts.googleapis.com%2Fcss%3Ffamily%3DPoppins;" vertex="1" parent="1">
          <mxGeometry x="1440" y="360" width="120" height="30" as="geometry" />
        </mxCell>
        <mxCell id="U-6L90hBsTqb_HatNkOn-91" value="Check Enrolments" style="swimlane;fontStyle=1;align=center;verticalAlign=middle;childLayout=stackLayout;horizontal=1;startSize=30;horizontalStack=0;resizeParent=0;resizeLast=1;container=0;fontColor=#000000;collapsible=0;rounded=1;arcSize=30;strokeColor=#ff0000;fillColor=#ffffc0;swimlaneFillColor=#ffffc0;dropTarget=0;fontFamily=Poppins;fontSource=https%3A%2F%2Ffonts.googleapis.com%2Fcss%3Ffamily%3DPoppins;" vertex="1" parent="1">
          <mxGeometry x="400" y="680" width="160" height="90" as="geometry" />
        </mxCell>
        <mxCell id="U-6L90hBsTqb_HatNkOn-92" value="Do: Display the list of enrolled students in that particular workshop" style="text;html=1;strokeColor=none;fillColor=none;align=center;verticalAlign=middle;spacingLeft=4;spacingRight=4;whiteSpace=wrap;overflow=hidden;rotatable=0;fontColor=#000000;fontFamily=Poppins;fontSource=https%3A%2F%2Ffonts.googleapis.com%2Fcss%3Ffamily%3DPoppins;" vertex="1" parent="U-6L90hBsTqb_HatNkOn-91">
          <mxGeometry y="30" width="160" height="60" as="geometry" />
        </mxCell>
        <mxCell id="U-6L90hBsTqb_HatNkOn-97" value="Do: Display the list of enrolled students in that particular workshop" style="text;html=1;strokeColor=none;fillColor=none;align=center;verticalAlign=middle;spacingLeft=4;spacingRight=4;whiteSpace=wrap;overflow=hidden;rotatable=0;fontColor=#000000;fontFamily=Poppins;fontSource=https%3A%2F%2Ffonts.googleapis.com%2Fcss%3Ffamily%3DPoppins;" vertex="1" parent="U-6L90hBsTqb_HatNkOn-91">
          <mxGeometry y="90" width="160" as="geometry" />
        </mxCell>
        <mxCell id="U-6L90hBsTqb_HatNkOn-94" style="edgeStyle=orthogonalEdgeStyle;rounded=0;orthogonalLoop=1;jettySize=auto;html=1;exitX=0.5;exitY=1;exitDx=0;exitDy=0;entryX=0.5;entryY=0;entryDx=0;entryDy=0;fontFamily=Poppins;fontSource=https%3A%2F%2Ffonts.googleapis.com%2Fcss%3Ffamily%3DPoppins;" edge="1" parent="1" source="U-6L90hBsTqb_HatNkOn-26" target="U-6L90hBsTqb_HatNkOn-91">
          <mxGeometry relative="1" as="geometry" />
        </mxCell>
        <mxCell id="U-6L90hBsTqb_HatNkOn-98" style="edgeStyle=orthogonalEdgeStyle;rounded=0;orthogonalLoop=1;jettySize=auto;html=1;exitX=0.5;exitY=1;exitDx=0;exitDy=0;entryX=0;entryY=0;entryDx=0;entryDy=0;fontFamily=Poppins;fontSource=https%3A%2F%2Ffonts.googleapis.com%2Fcss%3Ffamily%3DPoppins;" edge="1" parent="1" source="U-6L90hBsTqb_HatNkOn-92" target="U-6L90hBsTqb_HatNkOn-66">
          <mxGeometry relative="1" as="geometry">
            <Array as="points">
              <mxPoint x="480" y="840" />
              <mxPoint x="794" y="840" />
            </Array>
          </mxGeometry>
        </mxCell>
        <mxCell id="U-6L90hBsTqb_HatNkOn-99" value="" style="html=1;verticalAlign=bottom;endArrow=block;curved=0;rounded=0;entryX=0.5;entryY=0;entryDx=0;entryDy=0;fontFamily=Poppins;fontSource=https%3A%2F%2Ffonts.googleapis.com%2Fcss%3Ffamily%3DPoppins;" edge="1" parent="1" target="U-6L90hBsTqb_HatNkOn-40">
          <mxGeometry width="80" relative="1" as="geometry">
            <mxPoint x="1120" y="330" as="sourcePoint" />
            <mxPoint x="1200" y="330" as="targetPoint" />
            <Array as="points">
              <mxPoint x="1440" y="330" />
            </Array>
          </mxGeometry>
        </mxCell>
        <mxCell id="U-6L90hBsTqb_HatNkOn-100" value="" style="html=1;verticalAlign=bottom;endArrow=block;curved=0;rounded=0;entryX=0.5;entryY=0;entryDx=0;entryDy=0;fontFamily=Poppins;fontSource=https%3A%2F%2Ffonts.googleapis.com%2Fcss%3Ffamily%3DPoppins;" edge="1" parent="1" target="U-6L90hBsTqb_HatNkOn-37">
          <mxGeometry x="-1" y="175" width="80" relative="1" as="geometry">
            <mxPoint x="805" y="330" as="sourcePoint" />
            <mxPoint x="885" y="330" as="targetPoint" />
            <Array as="points">
              <mxPoint x="1120" y="330" />
            </Array>
            <mxPoint x="-160" y="105" as="offset" />
          </mxGeometry>
        </mxCell>
        <mxCell id="U-6L90hBsTqb_HatNkOn-101" value="" style="html=1;verticalAlign=bottom;endArrow=block;curved=0;rounded=0;entryX=0.5;entryY=0;entryDx=0;entryDy=0;fontFamily=Poppins;fontSource=https%3A%2F%2Ffonts.googleapis.com%2Fcss%3Ffamily%3DPoppins;" edge="1" parent="1" target="U-6L90hBsTqb_HatNkOn-25">
          <mxGeometry x="0.25" y="20" width="80" relative="1" as="geometry">
            <mxPoint x="480" y="330" as="sourcePoint" />
            <mxPoint x="500" y="240" as="targetPoint" />
            <mxPoint as="offset" />
          </mxGeometry>
        </mxCell>
        <mxCell id="U-6L90hBsTqb_HatNkOn-103" value="" style="html=1;verticalAlign=bottom;endArrow=block;curved=0;rounded=0;entryX=0.5;entryY=0;entryDx=0;entryDy=0;fontFamily=Poppins;fontSource=https%3A%2F%2Ffonts.googleapis.com%2Fcss%3Ffamily%3DPoppins;" edge="1" parent="1" target="U-6L90hBsTqb_HatNkOn-33">
          <mxGeometry width="80" relative="1" as="geometry">
            <mxPoint x="805" y="330" as="sourcePoint" />
            <mxPoint x="670" y="260" as="targetPoint" />
          </mxGeometry>
        </mxCell>
      </root>
    </mxGraphModel>
  </diagram>
</mxfile>
